<?xml version="1.0"?>
<svg xmlns="http://www.w3.org/2000/svg" xmlns:xlink="http://www.w3.org/1999/xlink" version="1.1" viewBox="0 0 224 224" width="30px" height="30px"><g fill="none" fill-rule="nonzero" stroke="none" stroke-width="1" stroke-linecap="butt" stroke-linejoin="miter" stroke-miterlimit="10" stroke-dasharray="" stroke-dashoffset="0" font-family="none" font-weight="none" font-size="none" text-anchor="none" style="mix-blend-mode: normal"><path d="M0,224v-224h224v224z" fill="none"/><g fill="#ffffff"><path d="M112,22.4c-49.4816,0 -89.6,40.1184 -89.6,89.6c0,41.98507 28.91093,77.11573 67.88693,86.83733c-0.41813,-1.2096 -0.68693,-2.61333 -0.68693,-4.35307v-15.31413c-3.63627,0 -9.72907,0 -11.25973,0c-6.13013,0 -11.5808,-2.63573 -14.224,-7.53387c-2.9344,-5.4432 -3.44213,-13.76853 -10.71467,-18.8608c-2.15787,-1.69493 -0.5152,-3.6288 1.9712,-3.36747c4.592,1.2992 8.4,4.45013 11.984,9.12427c3.56907,4.6816 5.24907,5.74187 11.9168,5.74187c3.23307,0 8.07147,-0.18667 12.62613,-0.90347c2.44907,-6.21973 6.68267,-11.94667 11.85707,-14.6496c-29.8368,-3.0688 -44.07573,-17.91253 -44.07573,-38.06507c0,-8.67627 3.696,-17.0688 9.97547,-24.13973c-2.0608,-7.01867 -4.65173,-21.33227 0.79147,-26.78293c13.42507,0 21.54133,8.70613 23.49013,11.05813c6.69013,-2.29227 14.03733,-3.59147 21.75787,-3.59147c7.73547,0 15.11253,1.2992 21.8176,3.6064c1.9264,-2.33707 10.05013,-11.07307 23.50507,-11.07307c5.4656,5.45813 2.8448,19.83147 0.7616,26.8352c6.24213,7.056 9.91573,15.42613 9.91573,24.08747c0,20.1376 -14.21653,34.97387 -44.00853,38.0576c8.1984,4.2784 14.1792,16.29973 14.1792,25.3568v20.41387c0,0.77653 -0.17173,1.33653 -0.26133,2.00107c34.91413,-12.23787 59.99467,-45.38987 59.99467,-84.48533c0,-49.4816 -40.1184,-89.6 -89.6,-89.6z"/></g></g></svg>
