<?xml version="1.0" encoding="iso-8859-1"?>
<!-- Generator: Adobe Illustrator 19.0.0, SVG Export Plug-In . SVG Version: 6.00 Build 0)  -->
<svg version="1.1" id="Capa_1" xmlns="http://www.w3.org/2000/svg" xmlns:xlink="http://www.w3.org/1999/xlink" x="0px" y="0px"
	 viewBox="0 0 512 512" style="enable-background:new 0 0 512 512;" xml:space="preserve">
<path style="fill:#424C59;" d="M400.731,40.122v431.756c0,17.95-14.563,32.513-32.525,32.513H48.696
	c-17.962,0-32.513-14.563-32.513-32.513V40.122c0-17.962,14.552-32.513,32.513-32.513h319.512
	C386.168,7.609,400.731,22.161,400.731,40.122z"/>
<path style="fill:#BCBCBC;" d="M400.731,40.12v51.054H16.184V40.12c0-17.962,14.553-32.513,32.513-32.513h319.509
	C386.168,7.607,400.731,22.158,400.731,40.12z"/>
<circle style="fill:#F9572B;" cx="67.981" cy="48.571" r="16.746"/>
<circle style="fill:#FCC63D;" cx="124.366" cy="48.571" r="16.746"/>
<g>
	<circle style="fill:#45B8C4;" cx="180.742" cy="48.571" r="16.746"/>
	<circle style="fill:#45B8C4;" cx="399.445" cy="161.446" r="96.377"/>
</g>
<path d="M43.628,48.57c0,13.43,10.926,24.355,24.355,24.355S92.338,61.999,92.338,48.57S81.412,24.215,67.983,24.215
	S43.628,35.141,43.628,48.57z M77.121,48.57c0,5.039-4.099,9.138-9.138,9.138c-5.039,0-9.138-4.1-9.138-9.138
	s4.099-9.138,9.138-9.138S77.121,43.532,77.121,48.57z"/>
<path d="M100.007,48.57c0,13.43,10.926,24.355,24.355,24.355s24.355-10.926,24.355-24.355s-10.926-24.355-24.355-24.355
	S100.007,35.141,100.007,48.57z M133.5,48.57c0,5.039-4.099,9.138-9.138,9.138s-9.138-4.1-9.138-9.138s4.099-9.138,9.138-9.138
	S133.5,43.532,133.5,48.57z"/>
<path d="M156.388,48.57c0,13.43,10.926,24.355,24.355,24.355c13.43,0,24.356-10.926,24.356-24.355s-10.926-24.355-24.356-24.355
	C167.313,24.216,156.388,35.141,156.388,48.57z M189.88,48.57c0,5.039-4.1,9.138-9.139,9.138c-5.039,0-9.138-4.1-9.138-9.138
	s4.099-9.138,9.138-9.138C185.781,39.432,189.88,43.532,189.88,48.57z"/>
<path d="M484.237,101.24c-2.434-3.424-7.186-4.227-10.611-1.791c-3.425,2.436-4.226,7.186-1.792,10.61
	c10.713,15.062,16.375,32.83,16.375,51.383c0,48.945-39.82,88.765-88.764,88.765c-48.945,0-88.765-39.82-88.765-88.765
	s39.82-88.765,88.765-88.765c20.241,0,39.302,6.634,55.122,19.185c3.292,2.611,8.077,2.06,10.69-1.232
	c2.611-3.292,2.059-8.077-1.233-10.69c-18.537-14.707-40.869-22.481-64.579-22.481c-57.336,0-103.982,46.646-103.982,103.982
	s46.646,103.982,103.982,103.982s103.981-46.646,103.981-103.982C503.428,139.711,496.792,118.892,484.237,101.24z"/>
<path d="M400.731,281.763c-4.203,0-7.609,3.407-7.609,7.609v182.506c0,13.733-11.178,24.905-24.916,24.905H48.695
	c-13.732,0-24.905-11.173-24.905-24.905V98.783h278.264c4.203,0,7.609-3.407,7.609-7.609c0-4.202-3.406-7.609-7.609-7.609H23.79
	V40.122c0-13.732,11.173-24.905,24.905-24.905h319.512c13.738,0,24.916,11.173,24.916,24.905c0,4.202,3.406,7.609,7.609,7.609
	s7.609-3.407,7.609-7.609C408.339,17.999,390.336,0,368.207,0H48.695C26.572,0,8.572,17.999,8.572,40.122v431.756
	C8.572,494.002,26.571,512,48.695,512h319.512c22.129,0,40.133-17.999,40.133-40.122V289.372
	C408.339,285.17,404.934,281.763,400.731,281.763z"/>
<path d="M273.174,150.901c0-4.202-3.406-7.609-7.609-7.609H96.661c-4.203,0-7.609,3.407-7.609,7.609s3.406,7.609,7.609,7.609
	h168.904C269.767,158.51,273.174,155.103,273.174,150.901z"/>
<path d="M70.139,149.415c-1.41-6.731-10.708-8.323-14.096-2.23c-3.32,5.97,2.617,13.136,9.105,10.904
	C68.678,156.876,70.903,153.098,70.139,149.415z"/>
<path d="M96.661,243.527h168.904c4.203,0,7.609-3.407,7.609-7.609c0-4.202-3.406-7.609-7.609-7.609H96.661
	c-4.203,0-7.609,3.407-7.609,7.609C89.052,240.121,92.458,243.527,96.661,243.527z"/>
<path d="M68.059,230.534c-4.737-4.592-13.002-1.317-12.997,5.387c0.003,3.327,2.266,6.337,5.444,7.288
	c3.023,0.905,6.407-0.223,8.28-2.76C71.007,237.444,70.685,233.18,68.059,230.534z"/>
<path d="M341.648,278.428c0-4.202-3.406-7.609-7.609-7.609h-47.675c-4.203,0-7.609,3.407-7.609,7.609
	c0,4.202,3.406,7.609,7.609,7.609h47.675C338.241,286.036,341.648,282.63,341.648,278.428z"/>
<path d="M261,270.819h-88.761c-4.203,0-7.609,3.407-7.609,7.609c0,4.202,3.406,7.609,7.609,7.609H261
	c4.203,0,7.609-3.407,7.609-7.609C268.609,274.226,265.202,270.819,261,270.819z"/>
<path d="M96.661,286.036h50.215c4.203,0,7.609-3.407,7.609-7.609c0-4.202-3.406-7.609-7.609-7.609H96.661
	c-4.203,0-7.609,3.407-7.609,7.609C89.052,282.63,92.458,286.036,96.661,286.036z"/>
<path d="M68.059,273.051c-4.846-4.846-13.405-0.994-12.979,5.849c0.193,3.099,2.327,5.818,5.277,6.768
	c3.218,1.036,6.845-0.249,8.688-3.083C70.984,279.606,70.578,275.57,68.059,273.051z"/>
<path d="M96.661,328.546h123.254c4.203,0,7.609-3.407,7.609-7.609c0-4.202-3.406-7.609-7.609-7.609H96.661
	c-4.203,0-7.609,3.407-7.609,7.609C89.052,325.139,92.458,328.546,96.661,328.546z"/>
<path d="M70.139,319.454c-1.412-6.739-10.661-8.309-14.076-2.261c-1.691,2.995-1.139,6.845,1.347,9.23
	c2.276,2.183,5.746,2.725,8.585,1.358C69.056,326.307,70.832,322.793,70.139,319.454z"/>
<path d="M272.669,371.054h23.329c4.203,0,7.609-3.407,7.609-7.609c0-4.202-3.406-7.609-7.609-7.609h-23.329
	c-4.203,0-7.609,3.407-7.609,7.609C265.06,367.647,268.466,371.054,272.669,371.054z"/>
<path d="M254.914,363.445c0-4.202-3.406-7.609-7.609-7.609h-67.458c-4.203,0-7.609,3.407-7.609,7.609
	c0,4.202,3.406,7.609,7.609,7.609h67.458C251.507,371.054,254.914,367.647,254.914,363.445z"/>
<path d="M96.661,371.054h57.823c4.203,0,7.609-3.407,7.609-7.609c0-4.202-3.406-7.609-7.609-7.609H96.661
	c-4.203,0-7.609,3.407-7.609,7.609C89.052,367.647,92.458,371.054,96.661,371.054z"/>
<path d="M68.059,358.065c-4.844-4.844-13.403-0.982-12.979,5.851c0.193,3.103,2.322,5.818,5.277,6.767
	c3.218,1.033,6.845-0.238,8.688-3.078C70.983,364.622,70.58,360.587,68.059,358.065z"/>
<path d="M222.454,413.563h108.542c4.203,0,7.609-3.407,7.609-7.609s-3.406-7.609-7.609-7.609H222.454
	c-4.203,0-7.609,3.407-7.609,7.609S218.251,413.563,222.454,413.563z"/>
<path d="M204.699,405.954c0-4.202-3.406-7.609-7.609-7.609H96.661c-4.203,0-7.609,3.407-7.609,7.609s3.406,7.609,7.609,7.609H197.09
	C201.292,413.563,204.699,410.156,204.699,405.954z"/>
<path d="M70.139,404.468c-1.382-6.594-10.395-8.322-13.946-2.486c-3.556,5.842,2.142,13.26,8.692,11.251
	C68.552,412.107,70.924,408.255,70.139,404.468z"/>
<path d="M96.661,440.855c-4.203,0-7.609,3.407-7.609,7.609c0,4.202,3.406,7.609,7.609,7.609h50.215c4.203,0,7.609-3.407,7.609-7.609
	c0-4.202-3.406-7.609-7.609-7.609H96.661z"/>
<path d="M69.702,445.555c-2.579-6.121-11.476-6.14-14.051,0c-1.297,3.092-0.329,6.815,2.315,8.884
	c2.369,1.853,5.681,2.146,8.328,0.716C69.663,453.337,71.199,449.094,69.702,445.555z"/>
<path d="M96.661,201.018h38.041c4.203,0,7.609-3.407,7.609-7.609c0-4.202-3.406-7.609-7.609-7.609H96.661
	c-4.203,0-7.609,3.407-7.609,7.609C89.052,197.612,92.458,201.018,96.661,201.018z"/>
<path d="M162.092,185.801c-4.203,0-7.609,3.407-7.609,7.609c0,4.202,3.406,7.609,7.609,7.609h73.039
	c4.203,0,7.609-3.407,7.609-7.609c0-4.202-3.406-7.609-7.609-7.609H162.092z"/>
<path d="M70.139,191.922c-1.397-6.666-10.549-8.32-14.021-2.359c-3.474,5.962,2.489,13.299,9.031,11.042
	C68.676,199.389,70.903,195.602,70.139,191.922z"/>
<path d="M433.798,114.532l-40.736,77.397L363.85,161.5c-2.911-3.031-7.726-3.129-10.758-0.22c-3.03,2.911-3.13,7.727-0.219,10.758
	l36.52,38.041c1.445,1.506,3.432,2.339,5.488,2.339c0.353,0,0.708-0.024,1.064-0.075c2.422-0.342,4.531-1.826,5.669-3.99
	l45.65-86.735c1.958-3.719,0.529-8.32-3.19-10.277C440.357,109.384,435.755,110.813,433.798,114.532z"/>
<g>
</g>
<g>
</g>
<g>
</g>
<g>
</g>
<g>
</g>
<g>
</g>
<g>
</g>
<g>
</g>
<g>
</g>
<g>
</g>
<g>
</g>
<g>
</g>
<g>
</g>
<g>
</g>
<g>
</g>
</svg>
