<?xml version="1.0" encoding="iso-8859-1"?>
<!-- Generator: Adobe Illustrator 19.0.0, SVG Export Plug-In . SVG Version: 6.00 Build 0)  -->
<svg version="1.1" id="Layer_1" xmlns="http://www.w3.org/2000/svg" xmlns:xlink="http://www.w3.org/1999/xlink" x="0px" y="0px"
	 viewBox="0 0 512 512" style="enable-background:new 0 0 512 512;" xml:space="preserve">
<path style="fill:#4C5870;" d="M249.198,361.725c0.329-17.991-4.295-36.055-13.87-51.951l31.814-31.814l-33.104-33.104
	l-31.814,31.814c-15.896-9.575-33.96-14.199-51.951-13.87l-11.659-43.513l-45.222,12.117l11.644,43.456
	c-7.786,4.3-15.104,9.745-21.701,16.342c-6.597,6.597-12.042,13.914-16.342,21.7l-43.456-11.644l-12.118,45.222l43.513,11.659
	c-0.329,17.991,4.296,36.055,13.87,51.951l-31.814,31.814l33.104,33.104l31.814-31.814c15.896,9.574,33.96,14.199,51.951,13.87
	l11.659,43.513l45.222-12.117l-11.644-43.456c7.786-4.3,15.104-9.745,21.701-16.342c6.597-6.597,12.042-13.914,16.342-21.701
	l43.456,11.644l12.117-45.222L249.198,361.725z M187.691,395.558c-19.644,19.644-51.608,19.644-71.251,0
	c-19.644-19.645-19.644-51.607,0-71.251s51.608-19.644,71.252,0C207.335,343.95,207.335,375.914,187.691,395.558z"/>
<path style="fill:#A2A9AF;" d="M453.819,177.223c2.382-8.892,3.436-17.964,3.258-26.953l43.5-11.656L488.46,93.392l-43.499,11.656
	c-4.35-7.894-9.811-15.242-16.34-21.771c-6.429-6.429-13.737-11.893-21.665-16.27l11.648-43.471l-45.222-12.118l-11.644,43.459
	c-18.553-0.344-36.508,4.683-51.925,13.965l-31.854-31.854l-33.104,33.104l31.812,31.812c-4.593,7.617-8.208,15.991-10.623,25.004
	c-2.382,8.892-3.436,17.964-3.258,26.953l-43.5,11.657l12.117,45.222l43.499-11.656c4.348,7.894,9.811,15.242,16.339,21.77
	c6.429,6.429,13.738,11.893,21.665,16.27l-11.648,43.471l45.222,12.118l11.645-43.459c18.553,0.344,36.508-4.683,51.925-13.965
	l31.854,31.854l33.104-33.104l-31.812-31.812C447.79,194.61,451.405,186.235,453.819,177.223z M408.598,165.106
	c-7.191,26.834-34.871,42.816-61.705,35.626c-8.546-2.29-16.343-6.78-22.546-12.983c-12.714-12.714-17.726-31.383-13.081-48.724
	c7.191-26.834,34.871-42.816,61.706-35.626c8.546,2.29,16.342,6.78,22.546,12.983C408.232,129.096,413.244,147.767,408.598,165.106z
	"/>
<g>
	<path style="fill:#11113F;" d="M152.065,298.154c-16.524,0-32.043,6.42-43.7,18.078c-11.658,11.658-18.079,27.178-18.079,43.701
		c0,16.524,6.421,32.043,18.078,43.701l0,0c12.048,12.048,27.874,18.071,43.7,18.071s31.652-6.022,43.701-18.071
		c11.657-11.658,18.078-27.178,18.078-43.701c0-16.524-6.42-32.043-18.078-43.701C184.109,304.574,168.589,298.154,152.065,298.154z
		 M179.616,387.484c-15.192,15.192-39.911,15.191-55.102,0l0,0c-7.345-7.345-11.39-17.129-11.39-27.551
		c0-10.423,4.045-20.207,11.39-27.551c7.344-7.345,17.129-11.39,27.551-11.39s20.207,4.045,27.551,11.39
		c7.344,7.344,11.388,17.128,11.388,27.551C191.005,370.355,186.96,380.14,179.616,387.484z"/>
	<path style="fill:#11113F;" d="M295.666,362.353l-35.257-9.446c-0.917-14.332-4.64-28.283-10.967-41.099l25.774-25.773
		c4.459-4.459,4.459-11.69,0-16.15l-33.104-33.104c-2.141-2.141-5.046-3.345-8.075-3.345s-5.933,1.204-8.075,3.345l-25.773,25.773
		c-12.817-6.326-26.767-10.049-41.099-10.967l-9.447-35.256c-0.785-2.927-2.697-5.42-5.32-6.934
		c-2.622-1.514-5.737-1.925-8.665-1.141l-45.222,12.117c-6.091,1.633-9.706,7.894-8.075,13.985l9.432,35.202
		c-5.927,3.956-11.465,8.496-16.534,13.566c-5.07,5.069-9.612,10.607-13.566,16.534l-35.201-9.432
		c-6.093-1.636-12.353,1.982-13.986,8.075L0.389,343.525c-0.785,2.926-0.373,6.042,1.141,8.665c1.514,2.623,4.008,4.537,6.934,5.32
		l35.257,9.446c0.918,14.33,4.641,28.284,10.967,41.099l-25.773,25.773c-4.459,4.459-4.459,11.69,0,16.15l33.105,33.104
		c2.141,2.141,5.045,3.345,8.075,3.345c3.028,0,5.933-1.204,8.075-3.345l25.773-25.773c12.817,6.326,26.768,10.05,41.099,10.967
		l9.447,35.256c1.367,5.103,5.98,8.467,11.023,8.467c0.977-0.001,1.973-0.127,2.963-0.393l45.222-12.117
		c6.091-1.633,9.706-7.894,8.075-13.985l-9.432-35.201c5.925-3.954,11.463-8.495,16.534-13.567
		c5.07-5.07,9.612-10.607,13.566-16.534l35.202,9.432c6.089,1.631,12.352-1.982,13.985-8.075l12.117-45.222
		c0.785-2.926,0.373-6.042-1.141-8.665C301.088,365.05,298.592,363.138,295.666,362.353z M272.518,404.62l-32.426-8.688
		c-5.069-1.359-10.414,0.915-12.952,5.509c-3.868,7.005-8.72,13.446-14.42,19.148c-5.702,5.7-12.143,10.552-19.147,14.42
		c-4.595,2.538-6.869,7.882-5.51,12.952l8.688,32.426l-23.162,6.207l-8.704-32.482c-1.339-5-5.869-8.464-11.028-8.464
		c-0.071,0-0.142,0.001-0.211,0.002c-16.223,0.292-32.07-3.934-45.85-12.236c-4.496-2.706-10.256-2.002-13.967,1.707l-23.739,23.739
		l-16.955-16.955l23.739-23.739c3.71-3.71,4.415-9.472,1.707-13.966c-8.301-13.781-12.53-29.635-12.233-45.85
		c0.096-5.245-3.395-9.881-8.462-11.239l-32.483-8.704l6.206-23.162l32.426,8.689c5.071,1.357,10.414-0.916,12.952-5.509
		c3.869-7.007,8.721-13.447,14.42-19.149c5.698-5.697,12.14-10.549,19.148-14.421c4.594-2.539,6.868-7.88,5.509-12.951
		l-8.688-32.426l23.162-6.207l8.704,32.482c1.357,5.067,5.972,8.536,11.238,8.462c16.228-0.297,32.072,3.935,45.852,12.236
		c4.496,2.708,10.256,2.004,13.967-1.707l23.739-23.739l16.955,16.955L227.253,301.7c-3.71,3.71-4.415,9.472-1.707,13.967
		c8.301,13.778,12.53,29.634,12.233,45.849c-0.096,5.245,3.395,9.881,8.462,11.239l32.483,8.704L272.518,404.62z"/>
	<path style="fill:#11113F;" d="M511.608,135.659L499.49,90.437c-1.633-6.093-7.894-9.706-13.986-8.075l-35.231,9.44
		c-3.973-5.981-8.52-11.541-13.577-16.599c-5.026-5.024-10.55-9.544-16.495-13.501l9.435-35.209
		c0.785-2.926,0.373-6.042-1.141-8.665c-1.514-2.623-4.008-4.537-6.934-5.32L376.339,0.39c-2.927-0.786-6.044-0.375-8.665,1.141
		c-2.623,1.514-4.537,4.008-5.32,6.934l-9.433,35.207c-14.261,0.93-28.207,4.682-41.075,11.053l-25.811-25.811
		c-4.459-4.458-11.69-4.458-16.149,0l-33.104,33.104c-4.46,4.459-4.46,11.69,0,16.15l25.769,25.769
		c-3.155,6.387-5.68,13.089-7.536,20.016c-1.845,6.887-3,13.952-3.45,21.094l-35.233,9.441c-2.926,0.785-5.42,2.697-6.934,5.32
		c-1.514,2.623-1.925,5.739-1.141,8.665l12.117,45.222c1.633,6.091,7.891,9.707,13.986,8.075l35.231-9.44
		c3.972,5.979,8.518,11.538,13.577,16.599c5.026,5.024,10.55,9.544,16.496,13.501l-9.435,35.21
		c-1.633,6.091,1.982,12.352,8.075,13.985l45.222,12.117c0.973,0.262,1.966,0.389,2.955,0.389c1.988,0,3.959-0.518,5.71-1.53
		c2.623-1.514,4.537-4.008,5.32-6.934l9.433-35.207c14.26-0.931,28.209-4.684,41.076-11.053l25.81,25.81
		c4.459,4.458,11.691,4.458,16.149,0l33.105-33.104c4.459-4.459,4.459-11.69,0-16.15l-25.769-25.769
		c3.155-6.388,5.68-13.09,7.536-20.016c1.845-6.887,3-13.951,3.45-21.092l35.234-9.443
		C509.625,148.011,513.24,141.75,511.608,135.659z M454.122,139.241c-5.074,1.359-8.566,6.005-8.462,11.256
		c0.16,8.065-0.806,16.062-2.871,23.77c-2.086,7.786-5.239,15.208-9.372,22.061c-2.711,4.496-2.008,10.259,1.704,13.971
		l23.737,23.737l-16.955,16.955l-23.778-23.778c-3.71-3.709-9.469-4.415-13.965-1.708c-13.895,8.363-29.739,12.623-45.825,12.33
		c-5.222-0.075-9.883,3.394-11.241,8.462l-8.689,32.428l-23.162-6.208l8.692-32.441c1.359-5.07-0.915-10.414-5.51-12.952
		c-7.056-3.896-13.486-8.724-19.11-14.347c-5.66-5.662-10.51-12.124-14.412-19.206c-2.535-4.602-7.882-6.876-12.957-5.52
		l-32.469,8.7l-6.206-23.162l32.471-8.7c5.075-1.359,8.567-6.005,8.462-11.257c-0.161-8.065,0.805-16.061,2.871-23.769
		c2.087-7.787,5.24-15.21,9.372-22.062c2.711-4.496,2.007-10.259-1.704-13.971l-23.738-23.737l16.955-16.956l23.779,23.779
		c3.709,3.709,9.47,4.412,13.963,1.708c13.896-8.365,29.744-12.621,45.824-12.329c5.232,0.134,9.884-3.394,11.242-8.462
		l8.689-32.428l23.162,6.207l-8.692,32.44c-1.359,5.07,0.915,10.414,5.51,12.952c7.055,3.896,13.485,8.724,19.11,14.348
		c5.658,5.657,10.507,12.119,14.412,19.206c2.535,4.601,7.882,6.878,12.957,5.519l32.469-8.7l6.206,23.162L454.122,139.241z"/>
	<path style="fill:#11113F;" d="M375.927,92.37c-32.915-8.82-66.871,10.783-75.691,43.701c-5.699,21.267,0.445,44.164,16.035,59.752
		c7.619,7.621,17.186,13.132,27.665,15.939c5.31,1.423,10.699,2.126,16.057,2.126c10.71,0,21.29-2.814,30.828-8.321
		c14.309-8.261,24.54-21.581,28.806-37.505c5.699-21.268-0.445-44.165-16.035-59.753C395.973,100.689,386.407,95.177,375.927,92.37z
		 M397.568,162.15c-2.688,10.032-9.139,18.427-18.166,23.638c-9.026,5.211-19.522,6.6-29.554,3.913
		c-6.613-1.772-12.638-5.239-17.427-10.027c-9.839-9.838-13.718-24.282-10.124-37.694c5.561-20.752,26.969-33.111,47.721-27.551
		c6.612,1.772,12.638,5.239,17.426,10.027C397.283,134.297,401.162,148.739,397.568,162.15z"/>
</g>
<g>
</g>
<g>
</g>
<g>
</g>
<g>
</g>
<g>
</g>
<g>
</g>
<g>
</g>
<g>
</g>
<g>
</g>
<g>
</g>
<g>
</g>
<g>
</g>
<g>
</g>
<g>
</g>
<g>
</g>
</svg>
