<?xml version="1.0" encoding="iso-8859-1"?>
<!-- Generator: Adobe Illustrator 19.0.0, SVG Export Plug-In . SVG Version: 6.00 Build 0)  -->
<svg xmlns="http://www.w3.org/2000/svg" xmlns:xlink="http://www.w3.org/1999/xlink" version="1.1" id="Layer_1" x="0px" y="0px" viewBox="0 0 505.003 505.003" style="enable-background:new 0 0 505.003 505.003;" xml:space="preserve" width="512" height="512">
<g>
	<g>
		<path style="fill:#E5E9EA;" d="M497.503,78.657v347.69c0,16.74-13.57,30.31-30.31,30.31H37.803c-16.73,0-30.3-13.57-30.3-30.31    V78.657c0-16.74,13.57-30.31,30.3-30.31h429.39C483.933,48.347,497.503,61.917,497.503,78.657z"/>
		<path style="fill:#D1D1D1;" d="M497.503,78.657v51.69h-490v-51.69c0-16.74,13.57-30.31,30.3-30.31h429.39    C483.933,48.347,497.503,61.917,497.503,78.657z"/>
		<g>
			<circle style="fill:#FA3F68;" cx="59.503" cy="89.347" r="19"/>
			<circle style="fill:#47C97F;" cx="178.506" cy="89.347" r="19"/>
			<circle style="fill:#FCB65F;" cx="119.005" cy="89.347" r="19"/>
		</g>
		<g>
			<rect x="40.639" y="163.403" style="fill:#FA3F68;" width="117.744" height="117.744"/>
			<rect x="193.631" y="163.403" style="fill:#53BCE9;" width="117.744" height="117.744"/>
			<rect x="346.624" y="163.403" style="fill:#FCB65F;" width="117.744" height="117.744"/>
		</g>
		<g>
			<rect x="40.639" y="308.859" style="fill:#FCB65F;" width="117.744" height="117.744"/>
			<rect x="193.631" y="308.859" style="fill:#FA3F68;" width="117.744" height="117.744"/>
			<rect x="346.624" y="308.859" style="fill:#53BCE9;" width="117.744" height="117.744"/>
		</g>
	</g>
	<g>
		<path d="M467.193,40.847H37.803c-20.843,0-37.8,16.961-37.8,37.81v51.622c0,0.023-0.003,0.045-0.003,0.068    s0.003,0.045,0.003,0.068v295.932c0,20.849,16.957,37.81,37.8,37.81h429.39c20.849,0,37.81-16.961,37.81-37.81V78.657    C505.003,57.808,488.042,40.847,467.193,40.847z M37.803,55.847h429.39c12.578,0,22.81,10.232,22.81,22.81v44.19h-475v-44.19    C15.003,66.079,25.231,55.847,37.803,55.847z M467.193,449.157H37.803c-12.572,0-22.8-10.232-22.8-22.81v-288.5h475v288.5    C490.003,438.924,479.771,449.157,467.193,449.157z"/>
		<path d="M59.503,115.847c14.612,0,26.5-11.888,26.5-26.5s-11.888-26.5-26.5-26.5s-26.5,11.888-26.5,26.5    S44.891,115.847,59.503,115.847z M59.503,77.847c6.341,0,11.5,5.159,11.5,11.5s-5.159,11.5-11.5,11.5s-11.5-5.159-11.5-11.5    S53.162,77.847,59.503,77.847z"/>
		<path d="M178.506,115.847c14.612,0,26.5-11.888,26.5-26.5s-11.888-26.5-26.5-26.5s-26.5,11.888-26.5,26.5    S163.894,115.847,178.506,115.847z M178.506,77.847c6.341,0,11.5,5.159,11.5,11.5s-5.159,11.5-11.5,11.5s-11.5-5.159-11.5-11.5    S172.165,77.847,178.506,77.847z"/>
		<path d="M119.004,115.847c14.612,0,26.5-11.888,26.5-26.5s-11.888-26.5-26.5-26.5s-26.5,11.888-26.5,26.5    S104.392,115.847,119.004,115.847z M119.004,77.847c6.341,0,11.5,5.159,11.5,11.5s-5.159,11.5-11.5,11.5s-11.5-5.159-11.5-11.5    S112.663,77.847,119.004,77.847z"/>
		<path d="M158.383,155.903H40.639c-4.142,0-7.5,3.358-7.5,7.5v117.744c0,4.142,3.358,7.5,7.5,7.5h117.744    c4.142,0,7.5-3.358,7.5-7.5V163.403C165.883,159.261,162.525,155.903,158.383,155.903z M150.883,273.647H48.139V170.903h102.744    V273.647z"/>
		<path d="M311.375,155.903H193.631c-4.142,0-7.5,3.358-7.5,7.5v117.744c0,4.142,3.358,7.5,7.5,7.5h117.744    c4.142,0,7.5-3.358,7.5-7.5V163.403C318.875,159.261,315.518,155.903,311.375,155.903z M303.875,273.647H201.131V170.903h102.744    V273.647z"/>
		<path d="M464.368,155.903H346.624c-4.142,0-7.5,3.358-7.5,7.5v27.996c0,4.142,3.358,7.5,7.5,7.5s7.5-3.358,7.5-7.5v-20.496    h102.744v102.744H354.124V216.4c0-4.142-3.358-7.5-7.5-7.5s-7.5,3.358-7.5,7.5v64.747c0,4.142,3.358,7.5,7.5,7.5h117.744    c4.142,0,7.5-3.358,7.5-7.5V163.403C471.868,159.261,468.51,155.903,464.368,155.903z"/>
		<path d="M158.383,301.359H40.639c-4.142,0-7.5,3.358-7.5,7.5v117.744c0,4.142,3.358,7.5,7.5,7.5h39.517c4.142,0,7.5-3.358,7.5-7.5    s-3.358-7.5-7.5-7.5H48.139V316.359h102.744v102.744h-45.725c-4.142,0-7.5,3.358-7.5,7.5s3.358,7.5,7.5,7.5h53.225    c4.142,0,7.5-3.358,7.5-7.5V308.859C165.883,304.717,162.525,301.359,158.383,301.359z"/>
		<path d="M311.375,301.359H193.631c-4.142,0-7.5,3.358-7.5,7.5v117.744c0,4.142,3.358,7.5,7.5,7.5h117.744    c4.142,0,7.5-3.358,7.5-7.5V308.859C318.875,304.717,315.518,301.359,311.375,301.359z M303.875,419.104H201.131V316.359h102.744    V419.104z"/>
		<path d="M464.368,301.359H346.624c-4.142,0-7.5,3.358-7.5,7.5v117.744c0,4.142,3.358,7.5,7.5,7.5h117.744    c4.142,0,7.5-3.358,7.5-7.5V308.859C471.868,304.717,468.51,301.359,464.368,301.359z M456.868,419.104H354.124V316.359h102.744    V419.104z"/>
	</g>
</g>















</svg>
